<svg enable-background="new 0 0 1024 600" height="600" viewBox="0 0 1024 600" width="1024" xmlns="http://www.w3.org/2000/svg"><path d="m53.07 531.97-27.07-303.62h297.45l-27.098 303.571-121.809 33.769z" fill="#e45126"/><path d="m174.725 539.878 98.427-27.287 23.158-259.416h-121.585z" fill="#f1682b"/><path d="m174.725 365.784h-49.275l-3.404-38.132h52.679v-37.239h-.129-93.246l.892 9.991 9.152 102.616h83.331z" fill="#ebebeb"/><path d="m174.725 462.491-.163.047-41.472-11.2-2.652-29.697h-20.151-17.229l5.217 58.467 76.278 21.176.172-.049z" fill="#ebebeb"/><g fill="#020202"><path d="m53.675 145.838h18.924v18.696h17.311v-18.696h18.925v56.618h-18.924v-18.958h-17.31v18.958h-18.926z"/><path d="m133.719 164.614h-16.66v-18.775h52.252v18.775h-16.667v37.843h-18.924z"/><path d="m177.604 145.838h19.733l12.137 19.894 12.127-19.894h19.739v56.618h-18.846v-28.063l-13.021 20.13h-.325l-13.028-20.13v28.063h-18.517z"/><path d="m250.758 145.838h18.929v37.903h26.612v18.714h-45.542z"/></g><path d="m174.596 365.784v37.236h45.854l-4.322 48.292-41.532 11.212v38.743l76.34-21.159.559-6.291 8.751-98.034.908-9.999h-10.034z" fill="#fff"/><path d="m174.596 290.413v23.128 14.019.092h89.827.12l.747-8.37 1.696-18.878.891-9.991z" fill="#fff"/><path d="m933.643 161.385h-24.689l25.675 27.859v13.26h-52.883v-15.525h25.67l-25.67-27.86v-13.281h51.897z" fill="#151515"/><path d="m871.265 161.385h-24.689l25.674 27.859v13.26h-52.883v-15.525h25.672l-25.672-27.86v-13.281h51.898z" fill="#151515"/><path d="m809.496 162.016h-26.64v24.313h26.64v16.175h-45.573v-56.666h45.573z" fill="#151515"/><path d="m727.62 531.994-27.07-303.62h297.45l-27.097 303.571-121.81 33.77z" fill="#1673b6"/><path d="m849.276 539.904 98.427-27.289 23.157-259.415h-121.584z" fill="#35a9db"/><path d="m849.275 363.2h49.276l3.402-38.132h-52.678v-37.239h.129 93.246l-.892 9.991-9.153 102.616h-83.33z" fill="#fff"/><path d="m849.498 459.907-.162.047-41.473-11.2-2.651-29.697h-20.151-17.229l5.217 58.468 76.277 21.176.172-.049z" fill="#ebebeb"/><path d="m895.386 398.859-4.485 49.87-41.532 11.211v38.742l76.34-21.157.56-6.291 6.477-72.375z" fill="#fff"/><path d="m849.404 287.829v23.128 14.019.092h-89.828-.119l-.746-8.37-1.697-18.878-.891-9.991z" fill="#ebebeb"/><path d="m849.275 363.204v23.129 14.017.091h-40.828-.119l-.746-8.368-1.697-18.878-.891-9.991z" fill="#ebebeb"/><path d="m390.345 408.754-27.07-303.622h297.45l-27.098 303.573-121.809 33.77z" fill="#e4a227"/><path d="m511.75 416.287 98.428-27.287 23.158-259.417h-121.586z" fill="#f0bf26"/><path d="m564.936 38.071h-24.69l25.676 27.86v13.26h-52.883v-15.526h25.67l-25.67-27.859v-13.281h51.897z" fill="#151515"/><path d="m503.621 22.55v56.617h-45.543v-18.714h26.613v-37.903h18.928z" fill="#020202"/><path d="m511.693 338.926-.162.047-41.472-11.2-2.653-29.698h-20.15-17.229l5.217 58.468 76.277 21.176.172-.049z" fill="#ebebeb"/><path d="m516.709 279.437v-37.237h-45.854l5.377-58.442 40.58-1.081-.103-38.723h-74.144l-2.754 27.449-8.752 98.035-.908 9.999h10.035z" fill="#ebebeb"/><path d="m516.457 182.729.163-.046 40.671 2.449 3.451 38.447h20.151 17.23l-6.514-71.946-74.98-7.696-.172.048z" fill="#fff"/><path d="m594.284 182.843-3.191-38.889h-78.603v24.152 14.64.097z" fill="#fff"/><path d="m511.564 242.218v37.236h45.854l-4.322 48.294-41.532 11.211v38.742l76.34-21.158.559-6.291 8.752-98.035.908-9.999h-10.035z" fill="#fff"/></svg>